<svg width="24" height="24" viewBox="0 0 24 24" fill="none" xmlns="http://www.w3.org/2000/svg">
<rect width="24" height="24" fill="none"/>
<path d="M12 2.75C17.1086 2.75 21.25 6.89137 21.25 12C21.25 17.1086 17.1086 21.25 12 21.25C6.89138 21.25 2.75 17.1086 2.75 12C2.75 6.89137 6.89138 2.75 12 2.75Z" stroke="unset" stroke-width="1.5"/>
<g clip-path="url(#clip0_5266_17782)">
<path d="M17.722 13.1456L16.7053 11.3002C16.6546 11.2086 16.7224 11.098 16.8311 11.0952L16.9938 11.091C17.0522 11.0896 17.1087 11.111 17.1498 11.1506L18.5164 12.4686C18.5981 12.5475 18.5981 12.6745 18.5164 12.7531L18.0594 13.1937C17.9587 13.2906 17.7886 13.2663 17.722 13.1456ZM16.4566 14.4492L16.0171 14.0253C15.9428 13.9537 15.9351 13.8406 15.999 13.7606L16.7834 12.7783C16.8772 12.6609 17.0667 12.6759 17.1389 12.8068L17.5254 13.5081C17.5683 13.5861 17.5535 13.6817 17.4884 13.7445L16.7574 14.4494C16.6745 14.5292 16.5395 14.5292 16.4569 14.4494M11.85 14.4486L10.7199 13.3596C10.656 13.298 10.6403 13.2044 10.6811 13.1269L10.756 12.9838C10.806 12.8883 10.9256 12.8464 11.0286 12.8888L12.4487 13.4716C12.513 13.4979 12.5597 13.5531 12.573 13.6189L12.6234 13.8681C12.6367 13.9337 12.6151 14.0013 12.5659 14.0488L12.1504 14.4492C12.0675 14.5289 11.9328 14.5289 11.85 14.4492M7.293 14.4972L6.37575 13.6127C6.27837 13.5188 6.29998 13.3622 6.41985 13.2957L7.18348 12.8716C7.3226 12.7944 7.49752 12.8877 7.50107 13.0415L7.53511 14.3985C7.536 14.4353 7.5212 14.4709 7.49427 14.4969C7.43892 14.5504 7.34864 14.5504 7.293 14.4969M6.46573 11.555L7.18733 11.3353C7.32171 11.2943 7.45964 11.3882 7.46289 11.523L7.47976 12.1977C7.48154 12.2715 7.44129 12.3403 7.37469 12.3773L6.0694 13.102C5.98623 13.1484 5.88057 13.1348 5.81279 13.0695L5.48425 12.7528C5.40255 12.6739 5.40255 12.5472 5.48425 12.4683L6.37959 11.605C6.40357 11.5819 6.43317 11.5646 6.46573 11.5547M9.84704 8.55112L10.0169 8.71485C10.0439 8.74086 10.0631 8.77338 10.0723 8.80929L10.5689 10.7516C10.6101 10.9125 10.442 11.05 10.2821 10.9861L9.26987 10.5828C9.18196 10.5478 9.12928 10.4607 9.14141 10.3705L9.35393 8.79628C9.35985 8.75217 9.38086 8.71145 9.41342 8.67978L9.54661 8.5514C9.62949 8.47166 9.76446 8.47166 9.84704 8.5514M14.4534 8.55112L14.5224 8.61757C14.5484 8.64274 14.5671 8.67384 14.5765 8.70806L14.7231 9.23769C14.7426 9.30838 14.7207 9.3836 14.6659 9.43422L13.876 10.1669C13.7629 10.2718 13.5735 10.2257 13.5267 10.082L13.3346 9.49247C13.3112 9.42121 13.3313 9.34316 13.3864 9.29L14.153 8.55084C14.2356 8.4711 14.3708 8.4711 14.4534 8.55084M15.474 10.6383L15.2091 9.68079C15.1676 9.53092 15.3606 9.42545 15.4749 9.53573L16.4022 10.4301C16.5327 10.556 16.4427 10.7697 16.2574 10.7743L15.6841 10.789C15.5861 10.7915 15.4991 10.7293 15.474 10.6385M15.7105 11.1238L16.0727 11.1144C16.1533 11.1125 16.2281 11.1543 16.2654 11.2225L16.7408 12.0855C16.7793 12.155 16.7719 12.2396 16.7218 12.3021L15.785 13.4756C15.7072 13.5731 15.5568 13.5825 15.4666 13.4954L15.2703 13.3062C15.2233 13.2607 15.2014 13.1965 15.2114 13.1334L15.5068 11.2954C15.5222 11.1987 15.6081 11.1266 15.7102 11.1241M12.7956 12.0708L13.1899 11.9294C13.2686 11.9011 13.3574 11.9203 13.416 11.978L13.9135 12.4686C13.9938 12.5475 13.9929 12.6734 13.9118 12.7514L13.2251 13.4131C13.1055 13.5285 12.8995 13.4685 12.8672 13.3093L12.6624 12.2984C12.6429 12.2017 12.6991 12.1056 12.7959 12.0708M11.5649 11.8612L12.169 12.1019C12.2344 12.1279 12.2818 12.1836 12.2951 12.2501L12.41 12.8167C12.4357 12.944 12.3022 13.0466 12.1776 12.9957L11.2089 12.5981C11.097 12.5523 11.0487 12.4259 11.1032 12.3219L11.2944 11.9571C11.3441 11.8621 11.4622 11.8202 11.5649 11.8612ZM11.4578 11.4552L11.1689 11.3401C11.1067 11.3155 11.0609 11.264 11.0449 11.2015L10.674 9.7512C10.6355 9.60105 10.8285 9.49784 10.9425 9.60755L11.7505 10.3863C11.7937 10.4282 11.8159 10.4858 11.8112 10.5444L11.7502 11.2847C11.739 11.4218 11.5907 11.5083 11.4578 11.4552ZM13.4095 11.4925L12.5097 11.8149C12.4594 11.833 12.4037 11.8318 12.354 11.812L12.2096 11.7544C12.1252 11.7207 12.0728 11.639 12.0802 11.5519L12.164 10.5362C12.1678 10.4884 12.1894 10.4437 12.2247 10.4098L12.7693 9.88467C12.8815 9.77637 13.0741 9.82133 13.1215 9.96696L13.5374 11.2428C13.5708 11.3452 13.5146 11.4543 13.4098 11.4919M14.9933 10.9244L14.1358 11.2318C14.0222 11.2725 13.8958 11.2134 13.8597 11.1026L13.7848 10.873C13.7611 10.8003 13.7821 10.7208 13.8396 10.6679L14.7018 9.86855C14.7716 9.8038 14.8888 9.8349 14.9137 9.92482L15.1235 10.6835C15.1513 10.7839 15.0951 10.8879 14.9933 10.9244ZM9.68188 11.1099L10.8489 11.5751C10.962 11.62 11.0114 11.7473 10.9567 11.8522L10.484 12.7534C10.4192 12.877 10.2466 12.9033 10.1448 12.8051L9.88019 12.5504C9.85888 12.53 9.8426 12.5051 9.83194 12.4782L9.40217 11.367C9.33824 11.2013 9.51139 11.0423 9.68188 11.1105M8.11613 12.2845L9.04995 12.5823C9.19854 12.6298 9.24353 12.8099 9.13313 12.9163L8.09422 13.9181C8.01342 13.9959 7.87461 13.9433 7.87194 13.8336L7.8379 12.4811C7.83435 12.3411 7.97731 12.2402 8.11642 12.2845M8.89308 11.0183L9.28556 12.0334C9.33351 12.1576 9.20978 12.2797 9.07837 12.2379L7.96251 11.8822C7.87786 11.8553 7.82014 11.7804 7.81807 11.6953L7.80801 11.2988C7.80564 11.2092 7.86573 11.1286 7.95511 11.1014L8.63025 10.8961C8.73799 10.8633 8.85372 10.9174 8.89279 11.0186M8.6412 10.5407L7.40606 10.9165C7.28856 10.9521 7.20006 10.8136 7.28649 10.7299L8.66458 9.40113C8.75871 9.31036 8.91972 9.38558 8.90285 9.51226L8.78653 10.3739C8.77587 10.4516 8.71934 10.5167 8.64091 10.5404M14.428 12.4941L13.9023 11.9758C13.7963 11.8711 13.8372 11.697 13.9798 11.6461L14.8249 11.3432C14.9761 11.2889 15.1327 11.4105 15.1081 11.5632L14.951 12.541C14.9246 12.705 14.7139 12.7706 14.5916 12.6527L14.4277 12.4946M18.8872 12.3516L14.428 8.04977C14.3951 8.0181 14.3501 8 14.3034 8C14.2566 8 14.2116 8.01781 14.1787 8.04977L12.1507 10.0051C12.0681 10.0849 11.9331 10.0849 11.8503 10.0051L9.82158 8.05005C9.75558 7.98643 9.63807 7.98671 9.57207 8.05005L5.1122 12.3502C4.96272 12.4944 4.96272 12.7265 5.1122 12.8707L7.26873 14.9499C7.33444 15.0136 7.45224 15.0136 7.51824 14.9499L9.54632 12.9946C9.6289 12.9148 9.76387 12.9148 9.84674 12.9946L11.8754 14.9497C11.9086 14.9816 11.9533 14.9994 12 14.9994C12.0468 14.9994 12.0918 14.9816 12.1246 14.9497L14.1536 12.9952C14.2365 12.9154 14.3714 12.9154 14.454 12.9952L16.4821 14.9505C16.5149 14.9822 16.5599 15.0003 16.6067 15.0003C16.6535 15.0003 16.6985 14.9825 16.7313 14.9505L18.8878 12.8713C19.0373 12.7271 19.0373 12.4949 18.8878 12.3507" fill="unset"/>
</g>
<defs>
<clipPath id="clip0_5266_17782">
<rect width="14" height="7" fill="none" transform="translate(5 8)"/>
</clipPath>
</defs>
</svg>
