<?xml version="1.0" encoding="UTF-8"?><svg xmlns="http://www.w3.org/2000/svg" xmlns:xlink="http://www.w3.org/1999/xlink" viewBox="0 0 150 150"><defs><clipPath id="b"><rect x="-220.96" y="-1286.33" width="2000" height="1000" style="fill:none;"/></clipPath></defs><g id="a"><g style="clip-path:url(#b);"><g style="opacity:.25;"><polygon points="376.95 -275.95 66.9 -420.64 302.57 -586.35 406.72 -680.97 516.42 -511.37 541.41 -193.83 746.97 -115.41 681.38 152.46 450.65 178.72 376.95 -275.95" style="fill:none; stroke:#424242; stroke-dasharray:0 0 2 2; stroke-linecap:round; stroke-linejoin:round;"/></g></g></g><g id="d"><g><path d="m90.24,62.32h-30.43c-2.79,0-5.07,2.28-5.07,5.07v60.85c0,2.79,2.28,5.07,5.07,5.07h30.43c2.79,0,5.07-2.28,5.07-5.07v-60.85c0-2.79-2.28-5.07-5.07-5.07Zm-15.21,30.43c-5.58,0-10.14-4.56-10.14-10.14s4.56-10.14,10.14-10.14,10.14,4.56,10.14,10.14-4.56,10.14-10.14,10.14Z" style="fill:#fff;"/><g style="opacity:.5;"><path d="m53.83,51.27c1.77,1.77,4.56,1.93,6.59.51,4.11-2.94,9.18-4.67,14.6-4.67s10.5,1.72,14.61,4.61c2.03,1.42,4.82,1.32,6.59-.46,2.18-2.18,1.98-5.78-.46-7.61-5.83-4.21-12.98-6.69-20.74-6.69s-14.91,2.48-20.74,6.69c-2.48,1.77-2.64,5.43-.46,7.61Z" style="fill:#fff;"/></g><g style="opacity:.5;"><path d="m75.03,16.68c-13.39,0-25.66,4.72-35.24,12.53-2.33,1.93-2.54,5.43-.41,7.56,1.83,1.83,4.72,1.98,6.69.35,7.86-6.39,17.95-10.29,28.96-10.29s21.1,3.9,28.91,10.35c1.98,1.62,4.87,1.47,6.69-.36,2.13-2.13,1.93-5.63-.41-7.56-9.53-7.86-21.81-12.58-35.19-12.58Z" style="fill:#fff;"/></g></g></g></svg>