<?xml version="1.0" encoding="UTF-8"?><svg id="c" xmlns="http://www.w3.org/2000/svg" xmlns:xlink="http://www.w3.org/1999/xlink" viewBox="0 0 150 150"><defs><clipPath id="d"><rect x="-2368.11" y="-1286.33" width="2000" height="1000" style="fill:none;"/></clipPath></defs><path d="m63.43,33.46c-.59-1.3-1.89-2.11-3.3-2.11s-2.71.82-3.3,2.11l-11.98,25.94-25.94,11.96c-1.3.59-2.11,1.89-2.11,3.32s.82,2.71,2.11,3.3l25.94,11.98,11.96,25.92c.59,1.3,1.89,2.11,3.3,2.11s2.71-.82,3.3-2.11l11.98-25.94,25.94-11.98c1.3-.59,2.11-1.89,2.11-3.3s-.82-2.71-2.11-3.3l-25.92-11.96-11.98-25.94Z" style="fill:#fff;"/><path d="m91.26,36.16l12.85-4.82,4.82-12.85c.39-1.02,1.36-1.71,2.46-1.71s2.07.68,2.46,1.71l4.82,12.85,12.85,4.82c1.02.39,1.71,1.36,1.71,2.46s-.68,2.07-1.71,2.46l-12.85,4.82-4.82,12.85c-.39,1.02-1.36,1.71-2.46,1.71s-2.07-.68-2.46-1.71l-4.82-12.85-12.85-4.82c-1.02-.39-1.71-1.36-1.71-2.46s.68-2.07,1.71-2.46Zm0,72.76l12.85-4.82,4.82-12.85c.39-1.02,1.36-1.71,2.46-1.71s2.07.68,2.46,1.71l4.82,12.85,12.85,4.82c1.02.39,1.71,1.36,1.71,2.46s-.68,2.07-1.71,2.46l-12.85,4.82-4.82,12.85c-.39,1.02-1.36,1.71-2.46,1.71s-2.07-.68-2.46-1.71l-4.82-12.85-12.85-4.82c-1.02-.39-1.71-1.36-1.71-2.46s.68-2.07,1.71-2.46Z" style="fill:#fff; isolation:isolate; opacity:.4;"/></svg>