<?xml version="1.0" encoding="UTF-8"?><svg id="d" xmlns="http://www.w3.org/2000/svg" xmlns:xlink="http://www.w3.org/1999/xlink" viewBox="0 0 150 150"><defs><clipPath id="b"><rect x="-2015.29" y="-1286.33" width="2000" height="1000" style="fill:none;"/></clipPath></defs><path d="m114.82,55.09H35.18c-7.33,0-13.27,5.95-13.27,13.27v46.46c0,7.32,5.94,13.27,13.27,13.27h79.65c7.32,0,13.27-5.95,13.27-13.27v-46.46c0-7.32-5.95-13.27-13.27-13.27Zm-20.62,39.89h-15.8s0,15.81,0,15.81c0,1.88-1.52,3.4-3.4,3.4s-3.4-1.52-3.4-3.4v-15.8s-15.81,0-15.81,0c-1.88,0-3.4-1.52-3.4-3.4s1.52-3.4,3.4-3.4h15.8s0-15.81,0-15.81c0-1.88,1.52-3.4,3.4-3.4s3.4,1.52,3.4,3.4v15.8s15.81,0,15.81,0c1.88,0,3.4,1.52,3.4,3.4s-1.52,3.4-3.4,3.4Z" style="fill:#fff;"/><path d="m46.79,31.86h56.42c2.76,0,4.98-2.23,4.98-4.98s-2.22-4.98-4.98-4.98h-56.42c-2.76,0-4.98,2.23-4.98,4.98s2.22,4.98,4.98,4.98Z" style="fill:#fff; isolation:isolate; opacity:.4;"/><path d="m36.84,48.45h76.33c2.76,0,4.98-2.22,4.98-4.98s-2.22-4.98-4.98-4.98H36.84c-2.75,0-4.98,2.23-4.98,4.98s2.23,4.98,4.98,4.98Z" style="fill:#fff; isolation:isolate; opacity:.4;"/></svg>