<?xml version="1.0" encoding="UTF-8"?><svg xmlns="http://www.w3.org/2000/svg" xmlns:xlink="http://www.w3.org/1999/xlink" viewBox="0 0 150 150"><defs><clipPath id="b"><rect x="-1126.46" y="-1286.33" width="2000" height="1000" style="fill:none;"/></clipPath></defs><g id="a"><g style="clip-path:url(#b);"><g style="opacity:.25;"><path id="c" d="m56.82,75.37l1.94,21.89,4.01,8.41-1.67,8.9-3.23,5.25-4.94-10.37-3.22,5.54,2.76,13.3-1.7,8.05-4.7,4.16-1.43,15.74-6.91,21.64-8.77,25.42-10.99,35.19-7.34,25.65-8.05,21.68-12.95,4.75-14.25,8.22-8.71-4.25-12.2-6.12-3.77-9.56-.59-16.23-4.8-14.37-1.06-13.37,3.23-13.24,7.29-3.4.35-6,7.75-14.26,1.85-11.76-3.44-8.43-2.7-11.59-.89-16.79,5.89-10.48,2.42-11.78,7.95-.86,8.98-4.03,6.14-3.65,6.83-.53,9.31-10.61,13.54-11.9,4.8-9.3-2-7.91,6.92,2.03,8.94-12.87.45-11.14,5.4-8.47,5.42,7.79,4.27,7.55,3.86,12.12h0Z" style="fill:#fff;"/><path d="m.22.99l-.83.6-1.42.05-1.12.61-1.14.04-.02-.57,1.42-.05,1.13-.33L-.66.45l.57-.02L.22.99Z" style="fill:#fff;"/></g></g></g><g id="e"><g><path d="m87.53,93.79c.2-1.62.36-3.25.36-4.97s-.15-3.35-.36-4.97l10.7-8.37c.96-.76,1.22-2.13.61-3.25l-10.14-17.55c-.61-1.12-1.98-1.52-3.09-1.12l-12.63,5.07c-2.64-2.03-5.48-3.7-8.57-4.97l-1.93-13.44c-.15-1.22-1.22-2.13-2.48-2.13h-20.28c-1.27,0-2.33.91-2.48,2.13l-1.93,13.44c-3.09,1.27-5.93,2.99-8.57,4.97l-12.63-5.07c-1.17-.46-2.48,0-3.09,1.12L.86,72.23c-.66,1.12-.35,2.48.61,3.25l10.7,8.37c-.2,1.62-.36,3.3-.36,4.97s.15,3.35.36,4.97l-10.7,8.37c-.96.76-1.22,2.13-.61,3.25l10.14,17.55c.61,1.12,1.98,1.52,3.09,1.12l12.63-5.07c2.64,2.03,5.48,3.7,8.57,4.97l1.93,13.44c.15,1.22,1.22,2.13,2.48,2.13h20.28c1.27,0,2.33-.91,2.48-2.13l1.93-13.44c3.09-1.27,5.93-2.99,8.57-4.97l12.63,5.07c1.17.46,2.48,0,3.09-1.12l10.14-17.55c.61-1.12.36-2.48-.61-3.25l-10.7-8.37Zm-37.68,12.78c-9.79,0-17.75-7.96-17.75-17.75s7.96-17.75,17.75-17.75,17.75,7.96,17.75,17.75-7.96,17.75-17.75,17.75Z" style="fill:#fff;"/><g style="opacity:.5;"><path d="m106.65,17.82c-9.8,9.8-9.8,25.7,0,35.5,9.8,9.8,25.7,9.8,35.5,0,9.8-9.8,9.8-25.7,0-35.5-9.8-9.8-25.7-9.8-35.5,0Zm20.27,13.6v15.09c0,1.38-1.12,2.5-2.5,2.5s-2.5-1.12-2.5-2.5v-15.09h-4.51c-1.14,0-1.69-1.37-.91-2.15l6.99-6.99c.5-.5,1.28-.5,1.78,0l6.99,6.99c.8.8.23,2.15-.89,2.13l-4.46.02Z" style="fill:#fff;"/></g></g></g></svg>