<?xml version="1.0" encoding="utf-8"?>
<!-- Generator: Adobe Illustrator 27.5.0, SVG Export Plug-In . SVG Version: 6.00 Build 0)  -->
<svg version="1.1" id="Layer_1" xmlns="http://www.w3.org/2000/svg" xmlns:xlink="http://www.w3.org/1999/xlink" x="0px" y="0px"
	 viewBox="0 0 480 480" style="enable-background:new 0 0 480 480;" xml:space="preserve">
<style type="text/css">
	.st0{fill:#FFFFFF;}
</style>
<g id="Nebra-Icon_00000039833631480306482960000017896773344407556277_">
	<path class="st0" d="M230.1,440.2c0.2,3.6,5.3,3.8,5.9,0.4c8.8-47.1,21.7-116.1,51.1-145.6c45.2-45.2,121.4-50.9,184.1-59.1
		c2.5-0.4,2.5-4,0-4.4l-93.8-14.9c-32-8.4-66.9-20-90.7-43.8c-31.6-31.6-44.2-87.9-53-133.2c-0.6-3.4-5.5-3.8-6.5-0.4
		c-7.2,22.1-23.6,69.2-44.6,110.9c-34.9,57.9-111.9,69-172.3,80.1c-4.4,0.6-4.4,7.2,0,7.8c30.5,5,64.6,12.2,93.8,22.5
		C207.2,295.5,226.9,391,230.1,440.2z"/>
</g>
</svg>
