<?xml version="1.0" encoding="UTF-8"?><svg xmlns="http://www.w3.org/2000/svg" xmlns:xlink="http://www.w3.org/1999/xlink" viewBox="0 0 150 150"><defs><clipPath id="b"><rect x="-673.71" y="-1286.33" width="2000" height="1000" style="fill:none;"/></clipPath></defs><g id="a"><g style="clip-path:url(#b);"><g style="opacity:.25;"><path d="m89.99,42.4l1.92,5.63-1.67,8.9,2.87,8.45-2.32,6.93,1.37,6.22-33.33.92-.16,58.47,10.79,14.44,10.67,11.02-29.35,8.48-38.54-1.17-11.13-8.15-64.63,2.92-2.23,1.51-9.7-7.92-10.27-.2-9.57,3.48-7.57,3.7-1.84-11.34,1.97-16.33,5.09-17.01.58-7.72,4.81-16.72,3.72-7.55,8.97-12.3,5.11-8.46,1.22-13.45-1.24-10.51-4.79-6.39-4.68-10.95-4.1-10.69.71-4.02,4.58-7.3-5.2-17.49-3.86-12.12-8.4-11.39,1.58-3.48,6.46-2.8,4.85.11,5.62-2.2,47.58-1.44,4.19,13.25,4.96,10.94,3.92,5.85,6.32,9.18,10.77-1.82,5.03-2.75,8.92,2.24,2.4-4.65,3.89-10.69,9.94-1.22.74-3.16,8.26-.3-1.19,6.6,19.36-.99.71,11.67,3.38,6.72-2.16,11.2,1.55,11.35,5.37,6.65-.35,21.69,3.93-1.85,6.86.32,9.87-3.21,7.45.87Z" style="fill:#fff; opacity:.5;"/><path id="c" d="m136.51-255.33l10.52,14.73,7.49,2.01,4.16-3.29,7.45.87,8.7-4.02,4.27,7.55,14.97,11.72-.08,21.39,6.64,2.33-5.18,6.46-5.8,5.34-5.92,9.63-3.11,8.67-.33,14.56-3.44,7.25.21,13.68-4.37,5.29-.18,10.84-2.23,1.51-1.34,10.32,4.29,8.12.39,2.84-2.35,29.46,4.64,10.1-2.57,7.79,5.6,12.92,10.05,9.62,2.36,9.9,4.73,4.68-.74,3.16-2.59-.76-21.82,3.93-4.19,2.43-4.42,11.85,3.71,7.85-2.35,21.76-1.9,18.32,4.4,3.26,11.37,6.72,4.43-3.58,1.28,19.63-12.25.44-6.63-9.74-5.99-7.77-12.34-2.12-3.76-9.28-9.76,6.06-12.63-2.11-5.71-8.06-10.03-1.35-7.68.56-1.06-5.67-5.42-.09-7.45-.87-9.87,3.21-6.86-.32-3.93,1.85.35-21.69-5.38-6.65-1.55-11.35,2.16-11.2-3.38-6.72-.71-11.67-19.36.99,1.19-6.6-8.26.3-.74,3.16-9.94,1.22-3.89,10.69-2.4,4.65L1.07-10.85l-5.03,2.75-10.77,1.82-6.32-9.18-3.92-5.85-4.96-10.94-4.19-13.25-47.58,1.44-5.62,2.2-4.85-.11-6.46,2.8-2.49-5.61,3.92-2.14.28-8,2.68-4.66,5.55-4.19,4.34,1.84,5.44-7.33,8.84-.04,1.04,5.1,6.09,2.92,9.27-11.74,9.08-9.17,3.77-6.13-.83-15.09,6.48-17.92,7.06-9.67,10.22-9.21,1.79-5.77.04-6.85,2.34-6.36-1.24-10.51,1.4-16.31,2.72-11.51,4.49-9.86.45-11.14.96-12.87,5.94-9.34,8.33-6.29,13.61,5.78,10.5,6.46,11.74,1.29,12.38,3.26,4.15-11.27,2.23-1.51,7.47,1.44,17.61-9.77,6.41,3.76,5.11-.76,2.4-4.65,5.93-1.64,12.03,1.56,10.55-.1,5.05-2.18h0Z" style="fill:#fff;"/><path id="d" d="m204.91-5.12l.88.54,6.38,2.91,10.37,2.76,9.31,5.08,7.71,7.99,4.26,15.25-2.67,4.95-3.17,14.95,3.12,15.29-4.9,6.45-5.08,17.3,8.43,4.26-48.44,16.87,1.61,13.06-12.15,3.01-9.14,7.46-2.05,6.35-5.63,1.92-13.99,15.34-8.68,12.29-5.4.48-5.2-1.81-17.73-1.35-2.9-1.32-.05-1.42-6.42-4.04-10.28-.48-12.96,4.46-10.67-11.02-10.79-14.44.16-58.47,33.33-.92-1.37-6.22,2.32-6.93-2.87-8.45,1.67-8.9-1.92-5.63,5.42.09,1.06,5.67,7.68-.56,10.03,1.35,5.71,8.06,12.63,2.11,9.76-6.06,3.76,9.28,12.34,2.12,5.99,7.77,6.63,9.74,12.25-.44-1.28-19.63-4.43,3.58-11.37-6.72-4.4-3.26,1.9-18.32,2.35-21.76-3.71-7.85,4.42-11.85,4.19-2.43,21.82-3.93,2.59.76-.71,4.02,5.46,1.23,3.55,3.58,2.82-.96-1.54-3.08h0Z" style="fill:#fff;"/><path id="e" d="m206.3,245.52l-8.33-1.69-5.33,2.47-7.8-2.85-6.27.23-9.98-7.91-12.35-2.4-4.7-11.52.05-6.56-6.62-1.76-18.1-19.31-4.94-10.37-3.26-3.3-5.94-14.33,17.73,1.35,5.2,1.81,5.4-.48,8.68-12.29,13.99-15.34,5.63-1.92,2.05-6.35,9.14-7.46,12.15-3.01.82,6.82,13.38-.77,7.54,3.43,3.3,4.44,7.74,1.15,8.18,5.41-.29,23.4-3.25,12.67-.64,13.71,2.48,5.33-2.17,10.92-2.22,1.79-4.37,13.28-16.9,21.43h0Z" style="fill:#fff; opacity:.5;"/><polygon points="-75.8 -275.95 -385.85 -420.64 -150.18 -586.35 -46.03 -680.97 63.67 -511.37 88.66 -193.83 294.22 -115.41 228.63 152.46 -2.09 178.72 -75.8 -275.95" style="fill:none; stroke:#424242; stroke-dasharray:0 0 2 2; stroke-linecap:round; stroke-linejoin:round;"/><circle cx="51.07" cy="1.96" r="11.2" style="fill:#dd6260;"/></g></g></g><g id="g"><path d="m115.57,29.36H34.43c-5.58,0-10.14,4.56-10.14,10.14v71c0,5.58,4.56,10.14,10.14,10.14h81.14c5.58,0,10.14-4.56,10.14-10.14V39.5c0-5.58-4.56-10.14-10.14-10.14Zm-55.78,71h-15.21c-2.79,0-5.07-2.28-5.07-5.07s2.28-5.07,5.07-5.07h15.21c2.79,0,5.07,2.28,5.07,5.07s-2.28,5.07-5.07,5.07Zm0-20.28h-15.21c-2.79,0-5.07-2.28-5.07-5.07s2.28-5.07,5.07-5.07h15.21c2.79,0,5.07,2.28,5.07,5.07s-2.28,5.07-5.07,5.07Zm0-20.28h-15.21c-2.79,0-5.07-2.28-5.07-5.07s2.28-5.07,5.07-5.07h15.21c2.79,0,5.07,2.28,5.07,5.07s-2.28,5.07-5.07,5.07Zm49.19,10.75l-16.08,16.08c-1.98,1.98-5.22,1.98-7.2,0l-7.15-7.2c-1.98-1.98-1.98-5.17,0-7.15,1.98-1.98,5.17-1.98,7.15,0l3.6,3.6,12.53-12.53c1.98-1.98,5.17-1.98,7.15,0l.05.05c1.93,1.98,1.93,5.22-.05,7.15Z" style="fill:#fff; fill-rule:evenodd;"/></g></svg>