<svg width="950" height="57" viewBox="0 0 950 57" fill="none" xmlns="http://www.w3.org/2000/svg">
<g clip-path="url(#clip0_6204_24410)">
<path d="M45.5799 0.281006V35.2208H45.4313L20.5852 0.281006H1.96236C1.21181 1.53996 0.125091 3.78586 0 5.27018V51.0276C0 52.3876 1.30563 54.9443 1.96236 56.0867H1.99363L11.4145 56.0945H17.2938V20.8361H17.4423L43.125 56.0867H60.88C61.5367 54.991 62.8423 52.3332 62.8423 51.0354V5.27795C62.8423 4.02677 61.5054 1.34567 60.88 0.281006H45.5799Z" fill="white"/>
<path d="M86.094 33.9772H117.453V22.4135H86.094V12.2565H121.917V5.20788C121.917 3.96448 120.572 1.27561 119.954 0.210938H70.1997C69.5429 1.35332 68.2373 3.92562 68.2373 5.2856V51.0197C68.2373 52.2631 69.582 54.9598 70.1997 56.0089H70.2309L119.978 56.0167C120.603 54.9675 121.94 52.2709 121.94 51.0275V43.9789H86.094V33.9772Z" fill="white"/>
<path d="M175.44 29.5709C171.734 28.3275 167.934 27.395 164.088 26.7732C163.869 26.7422 163.697 26.5634 163.666 26.3381C163.634 26.0661 163.822 25.8174 164.088 25.7863C171.421 24.3797 180.686 22.9886 184.915 15.7225C188.371 8.61949 181.655 0.210938 170.788 0.210938H128.539C127.913 1.27561 126.576 3.9567 126.576 5.20788V51.0275C126.576 52.2787 127.89 54.9598 128.539 56.0244H169.435C191.787 56.0244 192.53 35.6558 175.44 29.5709ZM144.378 12.2487H162.235C165.057 12.272 167.567 13.7252 167.567 16.9425C167.567 19.5149 165.87 21.7064 162.039 21.7064H144.386V12.2565L144.378 12.2487ZM163.47 43.9711H144.378V32.6483H163.658C167.035 32.6483 169.811 34.3814 169.811 38.1893C169.811 41.9972 167.231 43.9711 163.47 43.9711Z" fill="white"/>
<path d="M311.952 47.6859L292.344 0.21875H270.485L252.174 44.1111L242.902 28.5141C247.71 27.2629 251.463 23.1985 251.463 15.7769C251.463 6.48242 246.655 0.226521 233.52 0.226521H190.755C191.81 6.12494 193.257 14.2304 197.463 18.5979C200.356 21.6131 204.546 23.0508 208.44 24.0922V12.7228H225.64C229.994 12.7228 232.324 15.0619 232.324 18.7378C232.324 30.4491 207.963 23.012 197.471 33.9307C193.03 38.5468 190.583 49.7608 190.583 56.0012H208.471V37.4122H224.819L236.03 56.0089H247.21H266.364L269.593 46.9476H293.024L296.253 56.0089H311.131C312.241 54.9443 313.164 53.6853 313.868 52.302L311.952 47.6703V47.6859ZM273.784 35.3839L281.219 14.2848H281.367L288.826 35.3839H273.792H273.784Z" fill="white"/>
<path d="M502.778 17.2224C502.262 13.6165 499.369 11.1141 491.301 11.1141C485.375 11.1141 482.115 12.8083 482.115 16.2665C482.115 18.0306 483.373 19.0642 486.039 19.5071C490.48 20.2454 504.037 22.2348 509.22 23.113C519.071 24.8071 524.997 28.7783 524.997 38.0572C524.997 55.8768 501.738 56.0167 494.483 56.0167C476.556 56.0167 463.601 52.8538 462.562 38.2049H483.444C483.889 42.176 486.11 44.6784 495.296 44.6784C499.737 44.6784 504.553 43.6448 504.553 39.1607C504.553 36.3631 502.332 35.4072 496.187 34.4513L478.557 31.8013C467.667 30.1849 463.445 24.7372 463.445 16.927C463.445 10.0106 467.745 0.21875 490.926 0.21875C510.112 0.21875 521.659 4.7805 522.777 17.2224H502.778Z" fill="white"/>
<path d="M706.941 0.21875C725.603 0.21875 741.38 6.32699 741.38 28.1177C741.38 49.9085 725.603 56.0167 706.941 56.0167C688.279 56.0167 672.502 49.9085 672.502 28.1177C672.502 6.32699 688.279 0.21875 706.941 0.21875ZM706.941 44.2432C716.424 44.2432 722.718 39.1685 722.718 28.1177C722.718 17.0669 716.424 11.9923 706.941 11.9923C697.458 11.9923 691.164 17.1446 691.164 28.1177C691.164 39.0908 697.536 44.2432 706.941 44.2432Z" fill="white"/>
<path d="M813.355 0.210938H858.34C872.1 0.210938 877.135 6.46683 877.135 15.7691C877.135 23.1907 873.202 27.2628 868.168 28.514V28.6694C871.709 29.8429 874.461 32.6561 874.93 38.6789C875.798 49.6986 876.111 53.219 878.472 56.0322H857.941C856.917 53.6076 856.839 50.3281 856.839 47.748C856.839 38.9897 853.931 37.4277 849.209 37.4277H832.063V56.0322H813.347V0.210938H813.355ZM832.071 24.9159H850.084C854.642 24.9159 857.082 22.569 857.082 18.7377C857.082 14.9065 854.642 12.715 850.084 12.715H832.071V24.9081V24.9159Z" fill="white"/>
<path d="M459.066 47.7247L438.52 0.21875H415.637L394.871 47.7558L392.987 52.3176C393.691 53.7008 394.621 54.9598 395.724 56.0245H411.305L414.683 46.9554H439.216L442.594 56.0245H458.214C459.324 54.9598 460.247 53.7086 460.951 52.3176L459.051 47.7247H459.066ZM419.1 35.3917L426.887 14.2926H427.043L434.83 35.3917H419.108H419.1Z" fill="white"/>
<path d="M594.305 0.179932H577.535V20.1366H549.108V0.179932H532.346C531.596 1.44665 530.509 3.68479 530.384 5.16911V50.9887C530.384 52.3487 531.689 54.9132 532.346 56.0556H532.377H549.108V32.6562H577.535V56.0556H594.305C594.962 54.9132 596.267 52.3487 596.267 50.9887V5.16911C596.142 3.68479 595.056 1.44665 594.305 0.179932Z" fill="white"/>
<path d="M657.359 25.3823V25.2269C661.377 23.7426 664.285 19.2041 664.285 13.9585C664.285 8.71286 661.924 0.187744 648.305 0.187744H603.734C603.108 1.26018 601.779 3.92574 601.771 5.17692V51.0665C601.771 52.3254 603.085 55.0065 603.734 56.0634H613.905H646.726C663.973 56.0634 667.116 46.0462 667.116 39.394C667.116 31.4906 663.253 26.7112 657.351 25.3823H657.359ZM620.512 12.2333H639.174C643.192 12.2333 644.92 14.4248 644.92 16.9271C644.92 19.4295 643.184 21.6987 639.174 21.6987H620.512V12.2255V12.2333ZM640.667 44.0101H620.512V32.664H640.667C644.607 32.664 647.281 34.5447 647.281 38.2205C647.281 41.8963 644.607 44.0101 640.667 44.0101Z" fill="white"/>
<path d="M366.922 0.210938H328.3V0.249794C327.675 1.32223 326.346 3.98779 326.338 5.23897V51.1285C326.338 52.2631 327.941 55.4338 328.246 56.0244H364.475C380.596 56.0244 393.652 50.0794 393.652 28.1177C393.66 9.51319 384.302 0.210938 366.922 0.210938ZM360.707 43.5204H345.055V12.7227H359.213C369.197 12.7227 374.31 17.6497 374.31 28.0477C374.31 35.7102 371.402 43.5282 360.707 43.5282V43.5204Z" fill="white"/>
<path d="M923.262 0.358643H884.64V0.397499C884.015 1.46994 882.686 4.1355 882.678 5.38667V51.2762C882.678 52.4108 884.28 55.5815 884.585 56.1721H920.815C936.936 56.1721 949.992 50.2271 949.992 28.2654C949.992 9.66089 940.634 0.358643 923.254 0.358643H923.262ZM917.046 43.6681H901.394V12.8704H915.553C925.537 12.8704 930.65 17.7974 930.65 28.1954C930.65 35.8579 927.742 43.6759 917.046 43.6759V43.6681Z" fill="white"/>
<path d="M806.075 47.7247L785.529 0.21875H762.645L741.88 47.7558L739.996 52.3176C740.7 53.7008 741.63 54.9598 742.732 56.0245H758.314L761.691 46.9554H786.225L789.602 56.0245H805.223C806.333 54.9598 807.256 53.7086 807.959 52.3176L806.06 47.7247H806.075ZM766.109 35.3917L773.896 14.2926H774.052L781.839 35.3917H766.117H766.109Z" fill="white"/>
</g>
<defs>
<clipPath id="clip0_6204_24410">
<rect width="950" height="56" fill="white" transform="translate(0 0.179932)"/>
</clipPath>
</defs>
</svg>
