<?xml version="1.0" encoding="UTF-8"?><svg id="d" xmlns="http://www.w3.org/2000/svg" xmlns:xlink="http://www.w3.org/1999/xlink" viewBox="0 0 150 150"><defs><clipPath id="b"><rect x="-1579.2" y="-1286.33" width="2000" height="1000" style="fill:none;"/></clipPath></defs><path d="m130.78,75l-12.37-14.15,1.72-18.71-18.31-4.16-9.58-16.23-17.24,7.4-17.24-7.4-9.58,16.18-18.31,4.11,1.72,18.76-12.37,14.2,12.37,14.15-1.72,18.76,18.31,4.16,9.58,16.18,17.24-7.45,17.24,7.4,9.58-16.18,18.31-4.16-1.72-18.71,12.37-14.15Zm-69.07,20.34l-12.07-12.17c-1.98-1.98-1.98-5.17,0-7.15l.36-.36c1.98-1.98,5.22-1.98,7.2,0l8.16,8.22,26.12-26.17c1.98-1.98,5.22-1.98,7.2,0l.36.35c1.98,1.98,1.98,5.17,0,7.15l-30.02,30.12c-2.08,1.98-5.27,1.98-7.3,0Z" style="fill:#fff;"/></svg>