<svg width="24" height="24" viewBox="0 0 24 24" fill="none" xmlns="http://www.w3.org/2000/svg">
<rect width="24" height="24" fill="none"/>
<path d="M12 2.75C17.1086 2.75 21.25 6.89137 21.25 12C21.25 17.1086 17.1086 21.25 12 21.25C6.89138 21.25 2.75 17.1086 2.75 12C2.75 6.89137 6.89138 2.75 12 2.75Z" stroke="unset" stroke-width="1.5"/>
<path d="M12.2791 6.12168L13.5809 7.42354C13.6621 7.50467 13.6621 7.63638 13.5809 7.71751L12.1321 9.16635C12.051 9.24748 11.9193 9.24748 11.8381 9.16635L10.3893 7.71751C10.3082 7.63638 10.3082 7.50467 10.3893 7.42354L11.6912 6.12168C11.8534 5.95944 12.1168 5.95944 12.2791 6.12168Z" fill="unset"/>
<path d="M15.7881 9.63082L14.3392 8.18197C14.258 8.1008 14.1264 8.1008 14.0453 8.18197L12.5964 9.63082C12.5152 9.712 12.5152 9.84361 12.5964 9.92478L14.0453 11.3736C14.1264 11.4548 14.258 11.4548 14.3392 11.3736L15.7881 9.92478C15.8692 9.84361 15.8692 9.712 15.7881 9.63082Z" fill="unset"/>
<path d="M13.5808 11.8379L12.132 10.389C12.0508 10.3078 11.9192 10.3078 11.838 10.389L10.3892 11.8379C10.308 11.919 10.308 12.0506 10.3892 12.1318L11.838 13.5807C11.9192 13.6618 12.0508 13.6618 12.132 13.5807L13.5808 12.1318C13.662 12.0506 13.662 11.919 13.5808 11.8379Z" fill="unset"/>
<path d="M16.5464 10.389L17.8483 11.6908C18.0106 11.8531 18.0106 12.1165 17.8483 12.2788L16.5464 13.5806C16.4653 13.6617 16.3336 13.6617 16.2525 13.5806L14.8036 12.1318C14.7225 12.0506 14.7225 11.9189 14.8036 11.8378L16.2525 10.389C16.3336 10.3078 16.4653 10.3078 16.5464 10.389Z" fill="unset"/>
<path d="M15.7881 14.0449L14.3392 12.596C14.258 12.5149 14.1264 12.5149 14.0453 12.596L12.5964 14.0449C12.5152 14.1261 12.5152 14.2577 12.5964 14.3388L14.0453 15.7877C14.1264 15.8689 14.258 15.8689 14.3392 15.7877L15.7881 14.3388C15.8692 14.2577 15.8692 14.1261 15.7881 14.0449Z" fill="unset"/>
<path d="M9.46039 11.8381L11.3737 9.92478C11.4549 9.84361 11.4549 9.712 11.3737 9.63082L9.92484 8.18197C9.84365 8.1008 9.71205 8.1008 9.63088 8.18197L7.57061 10.2422L6.12176 11.6911C5.95941 11.8534 5.95941 12.1167 6.12176 12.279L7.57061 13.7278L11.6911 17.8483C11.8534 18.0106 12.1166 18.0106 12.279 17.8483L13.5808 16.5464C13.662 16.4653 13.662 16.3336 13.5808 16.2525L9.46039 12.132C9.37922 12.0509 9.37922 11.9192 9.46039 11.8381Z" fill="unset"/>
</svg>
